<?xml version="1.0" encoding="utf-8"?>
<!-- Generator: Adobe Illustrator 25.2.1, SVG Export Plug-In . SVG Version: 6.00 Build 0)  -->
<svg version="1.1" id="layer_1" xmlns="http://www.w3.org/2000/svg" xmlns:xlink="http://www.w3.org/1999/xlink" x="0px" y="0px"
	 viewBox="0 0 34 34" style="enable-background:new 0 0 34 34;" xml:space="preserve">
<style type="text/css">
	.st0{fill:#E30613;}
</style>
<path class="st0" d="M28.4,16.8c0.8,2.4,1.6,4.8-1.6,6.6c-0.1,0.1-0.2,0.1-0.3,0.1c-0.2,0.5-0.4,0.9-0.8,1.3
	c-0.4,0.4-0.8,0.6-1.3,0.8c0.1,0.2,0.1,0.4,0,0.6c-1,1.7-2.2,2.3-3.4,2.3c-1,0-2.1-0.4-3.2-0.7c-0.4-0.1-0.9-0.3-1.3-0.4
	c-4-1.2-8.5-3.8-9.6-7c-0.5-1.5-0.3-3,0.6-4.3c0.5-0.7,1.7-1.8,2.9-2.3c-0.2-1.2-1.2-2.6-1.6-2.7c-0.1,0-0.2,0-0.3,0
	c-0.9,0-1.1,0-1.2,0.9c0,0.2-0.2,0.5-0.4,0.6c-0.2,0.1-0.5,0.2-0.7,0.1C4.9,12,4.9,10.4,4.9,9.6V9.5c0-1.1,0.4-2,1.1-2.7
	c0.9-0.8,2.2-1.3,3.6-1.2c1.7,0.1,3.9,1.5,5.2,2.9c0.6-0.8,1.3-1.6,1.8-2c1.4-0.9,2.9-1.2,4.3-0.6c3.2,1.1,5.8,5.7,7,9.6
	C28.1,15.9,28.2,16.4,28.4,16.8z M26.6,21.6c1.3-1,1-2.1,0.3-4.3c-0.1-0.4-0.3-0.9-0.4-1.4c-1-3.5-3.3-7.7-6-8.6
	c-1-0.4-2-0.2-2.9,0.5c-0.7,0.5-1.4,1.4-1.7,2.2c0,0,0,0.1,0,0.1c0,0.1,0,0.2,0,0.3c0.4,0.1,0.8,0.2,1.2,0.3
	c-0.1-0.8,0.1-1.7,0.5-2.4c0.2-0.4,0.7-0.5,1.1-0.2c0.4,0.2,0.5,0.7,0.2,1.1c-0.4,0.6-0.4,1.6,0,2.2c0.1,0.1,0.1,0.2,0.1,0.3
	c1.2,0.7,2.5,1.6,3.6,2.8C25,16.7,26.4,19.4,26.6,21.6z M24.6,23.7c1.2-1.2,0.2-4.9-3.1-8.2c-2.4-2.4-5-3.6-6.8-3.6
	c-0.6,0-1.2,0.2-1.5,0.5c-1.2,1.2-0.2,4.9,3.1,8.2c1.6,1.6,3.4,2.8,5,3.3C22.8,24.3,24,24.3,24.6,23.7z M22.8,25.7
	c-0.6,0-1.2-0.2-1.9-0.4c-1.9-0.6-3.9-1.9-5.6-3.7c-2.2-2.2-3.6-4.6-3.9-6.7c-0.8,0.2-2.1,1.1-2.6,1.9c-0.7,1-0.8,1.9-0.5,2.9
	c1,2.7,5.1,5,8.6,6c0.5,0.1,0.9,0.3,1.4,0.4C20.6,27,21.7,27.3,22.8,25.7z M14,10.3c0-0.1,0-0.2,0.1-0.3c-0.7-1-2.9-2.8-4.5-2.9
	c-0.7,0-1.8,0.1-2.4,0.8C6.7,8.3,6.5,8.8,6.5,9.5v0.1c0,0.1,0,0.2,0,0.4c0.7-0.6,1.6-0.5,2.1-0.5c0.1,0,0.2,0,0.3,0
	c0.5,0,1,0.3,1.5,0.8c0.4,0.5,0.9,1.1,1.2,1.9c0.2-0.3,0.4-0.6,0.6-0.9C12.6,10.7,13.3,10.4,14,10.3z M18.1,19
	c-2.6-2.7-2.9-4.8-2.9-5.6c0-0.4-0.3-0.8-0.8-0.8c-0.4,0-0.8,0.4-0.8,0.8c0,1.2,0.4,3.7,3.4,6.7c2.2,2.2,4.3,3.4,5.8,3.4
	c0.4,0,0.8-0.4,0.8-0.8c0-0.4-0.4-0.8-0.8-0.8C22,21.9,20.3,21.1,18.1,19z M10.8,19.7c-0.2-0.4-0.4-0.7-0.4-1.1
	c0-0.2,0.2-0.6,0.5-0.8c0.3-0.3,0.4-0.8,0.1-1.1c-0.3-0.3-0.8-0.4-1.1-0.1c-0.3,0.2-1.1,1-1.1,2c0,0.6,0.2,1.3,0.6,1.9
	c0.4,0.7,4.5,3.6,6,4.4c0.1,0.1,0.2,0.1,0.4,0.1c0.3,0,0.6-0.2,0.7-0.4c0.2-0.4,0-0.9-0.4-1C14.7,22.8,11.1,20.2,10.8,19.7z"/>
</svg>
