<?xml version="1.0" encoding="utf-8"?>
<!-- Generator: Adobe Illustrator 25.2.1, SVG Export Plug-In . SVG Version: 6.00 Build 0)  -->
<svg version="1.1" id="Слой_1" xmlns="http://www.w3.org/2000/svg" xmlns:xlink="http://www.w3.org/1999/xlink" x="0px" y="0px"
	 viewBox="0 0 30 30" style="enable-background:new 0 0 30 30;" xml:space="preserve">
<style type="text/css">
	.st0{fill:#FFFFFF;}
</style>
<g>
	<g>
		<g>
			<path class="st0" d="M20.2,6.8c-0.3-0.8-1-1.3-1.8-1.3H11c-0.8,0-1.6,0.5-1.8,1.3l-1.3,4h1.8l1.1-3.4c0-0.1,0.1-0.2,0.3-0.2h7.3
				c0.1,0,0.2,0.1,0.3,0.2l1.1,3.4h1.8L20.2,6.8z"/>
			<path class="st0" d="M23.8,12.1H5.5c-0.3,0-0.6,0.2-0.6,0.6v2.8c0,0.3,0.2,0.6,0.6,0.6h1l1.1,7.4c0.1,0.5,0.5,0.9,1.1,0.9h12
				c0.5,0,1-0.4,1.1-0.9l1.1-7.4h1c0.3,0,0.6-0.2,0.6-0.6v-2.8C24.4,12.4,24.1,12.1,23.8,12.1z M11.6,21.3c0,0.5-0.4,0.8-0.8,0.8
				s-0.8-0.4-0.8-0.8v-3.6c0-0.5,0.4-0.8,0.8-0.8s0.8,0.4,0.8,0.8V21.3z M15.5,21.3c0,0.5-0.4,0.8-0.8,0.8s-0.8-0.4-0.8-0.8v-3.6
				c0-0.5,0.4-0.8,0.8-0.8s0.8,0.4,0.8,0.8V21.3z M19.4,21.3c0,0.5-0.4,0.8-0.8,0.8s-0.8-0.4-0.8-0.8v-3.6c0-0.5,0.4-0.8,0.8-0.8
				s0.8,0.4,0.8,0.8V21.3z"/>
		</g>
	</g>
</g>
</svg>
