<?xml version="1.0" encoding="utf-8"?>
<!-- Generator: Adobe Illustrator 25.2.1, SVG Export Plug-In . SVG Version: 6.00 Build 0)  -->
<svg version="1.1" id="layer_1" xmlns="http://www.w3.org/2000/svg" xmlns:xlink="http://www.w3.org/1999/xlink" x="0px" y="0px"
	 viewBox="0 0 34 34" style="enable-background:new 0 0 34 34;" xml:space="preserve">
<style type="text/css">
	.st0{fill:#E30613;}
</style>
<g>
	<path class="st0" d="M25.3,11l1.2,0.7c0.1,0.1,0.3,0.1,0.4,0.1c0.3,0,0.5-0.1,0.6-0.4c0.2-0.4,0.1-0.8-0.3-1l-1.2-0.7
		c-0.4-0.2-0.8-0.1-1,0.3C24.9,10.3,25,10.8,25.3,11z"/>
	<path class="st0" d="M23.7,13.7l1.1,0.7c0.1,0.1,0.3,0.1,0.4,0.1c0.3,0,0.5-0.1,0.6-0.4c0.2-0.4,0.1-0.8-0.3-1l-1.1-0.7
		c-0.4-0.2-0.8-0.1-1,0.3C23.2,13.1,23.4,13.5,23.7,13.7z"/>
	<path class="st0" d="M30.7,18.6c0-1-0.8-1.9-1.9-1.9h-1.7c0.1-0.1,0.2-0.2,0.3-0.4c1.3-1.9,2.2-3.9,2.6-5.6c0.4-2,0.1-3.4-0.9-4.1
		c-1.8-1.2-5.2,1.3-7.5,3.7c-0.2-0.3-0.5-0.6-0.8-0.7c0,0,0,0-0.1,0c-0.3-0.6-0.8-1-1.4-1.2c-0.6-0.2-1.3-0.2-1.9,0
		C16.8,8,15.9,8,15.2,8.4c-0.3,0.1-0.6,0.3-0.8,0.5c-0.5-0.5-1-0.8-1.5-0.9V6.9c0.2-0.1,0.4-0.3,0.5-0.5c0.3-0.5,0.3-1.3,0-1.8
		C13.1,4,12.6,3.8,12,3.8H8.5C7.7,3.8,7,4.5,7,5.4C7,6,7.2,6.5,7.7,6.8v1.1C6.5,8.3,5.2,9.4,5,11.4c0,0.1,0,0.1,0,0.2v0.3v2.4v2.4
		c-1,0.1-1.8,0.9-1.8,1.9c0,0.9,0.7,1.7,1.5,1.9l1.1,7.3c0.4,2.4,1,2.6,3,2.6c0,0,0,0,0,0l8.1,0l8.3,0c0,0,0,0,0,0
		c2.4,0,2.7-1.6,2.8-2.6l1.1-7.3C30.1,20.3,30.7,19.5,30.7,18.6z M26,8.6c1.4-0.9,2.1-0.9,2.3-0.7c0.4,0.3,0.5,1.3,0.3,2.5
		c-0.3,1.5-1.2,3.4-2.4,5.1c-0.3,0.4-0.6,0.8-0.9,1.2h-1.6c0.1-0.1,0.2-0.1,0.2-0.2c0.2-0.4,0.1-0.8-0.3-1l-1.1-0.7
		c-0.4-0.2-0.8-0.1-1,0.3c-0.2,0.4-0.1,0.8,0.3,1l1.1,0.7h-2.6c-0.1-0.6-0.2-1.3-0.3-1.9c0.6,0.2,1.1,0.2,1.7,0
		c0.6-0.2,1-0.7,1.2-1.2c0.2-0.6,0.2-1.2,0-1.7c-0.1-0.1-0.1-0.2-0.2-0.3C23.7,10.3,24.9,9.3,26,8.6z M6.5,15.1h5.8
		c0,0.2,0.1,0.4,0.2,0.5c0.2,0.5,0.6,0.8,1,1.1H6.5V15.1z M6.5,12.3h5.7c-0.1,0.4-0.1,0.8,0,1.2H6.5V12.3z M16,16.4
		c0.2-0.2,0.4-0.4,0.5-0.6c0.1,0.3,0.3,0.6,0.4,0.9h-1.3C15.7,16.6,15.9,16.5,16,16.4z M18.4,16.7c-0.1-0.5-0.3-1-0.5-1.5
		c0.2-0.1,0.5-0.1,0.7-0.2c0,0.6,0.1,1.2,0.2,1.7H18.4z M15.8,9.7c0.2-0.1,0.4-0.1,0.6-0.1c0.2,0,0.4,0,0.6,0.1c0.1,0,0.1,0,0.2,0.1
		c0.2,0.1,0.5,0.1,0.7,0c0.3-0.2,0.7-0.2,1-0.1c0.3,0.1,0.6,0.4,0.7,0.7c0.1,0.3,0.4,0.5,0.7,0.5c0,0,0,0,0,0c0,0,0,0,0,0
		c0.1,0,0.1,0.1,0.1,0.1c-0.1,0.4,0.2,0.8,0.6,0.9c0,0,0.1,0,0.1,0c0.2,0.1,0.3,0.2,0.4,0.4c0.1,0.2,0.1,0.4,0,0.6
		c-0.1,0.2-0.2,0.3-0.4,0.4c-0.2,0.1-0.4,0.1-0.6,0c-0.1,0-0.2-0.1-0.3-0.2c-0.1-0.1-0.1-0.2-0.1-0.3c-0.1-0.4-0.5-0.6-0.8-0.5
		c-0.4,0.1-0.6,0.4-0.6,0.7c-0.1,0.2-0.6,0.5-1.2,0.7c-0.4,0.1-0.6,0.1-0.8,0c-0.1,0-0.1-0.1-0.2-0.1c-0.2-0.2-0.6-0.2-0.9-0.1
		c-0.3,0.2-0.4,0.5-0.3,0.8c0.1,0.3,0,0.6-0.2,0.8c-0.1,0.1-0.4,0.3-0.8,0.1c-0.2-0.1-0.3-0.2-0.4-0.4c-0.1-0.2-0.1-0.4,0-0.6
		c0,0,0-0.1,0.1-0.1c0.2-0.3,0.2-0.6-0.1-0.9c-0.2-0.2-0.2-0.5-0.1-0.8c0.1-0.2,0.3-0.4,0.6-0.5c0.4-0.1,0.6-0.4,0.6-0.8
		c0-0.2,0-0.5,0.1-0.7v0C15.1,10.2,15.4,9.9,15.8,9.7z M8.4,9.3c0.4,0,0.7-0.3,0.7-0.7V6.3c0-0.4-0.3-0.7-0.6-0.7c0-0.1,0-0.3,0-0.3
		l3.5,0c0.1,0,0.1,0.2,0.1,0.3c-0.2,0-0.3,0.1-0.5,0.2c-0.1,0.1-0.2,0.3-0.2,0.5v2.2c0,0.4,0.3,0.7,0.7,0.7c0.4,0,1,0.3,1.4,0.8
		c-0.1,0.2-0.1,0.5-0.2,0.7H6.7C7,9.7,7.9,9.3,8.4,9.3z M5.1,18.2h12.7c0,0,0,0,0,0c0,0,0,0,0,0h1.9c0,0,0,0,0,0c0,0,0,0,0,0h9.1
		c0.2,0,0.4,0.2,0.4,0.4c0,0.2-0.2,0.4-0.4,0.4h-0.3H5.4H5.1c-0.2,0-0.4-0.2-0.4-0.4C4.7,18.3,4.9,18.2,5.1,18.2z M26.6,27.5
		c-0.1,0.9-0.2,1.3-1.3,1.3c0,0,0,0,0,0l-8.3,0l-8.1,0c-0.5,0-1.1,0-1.2-0.1c-0.1-0.1-0.2-0.3-0.3-1.2l-1.1-7h21.4L26.6,27.5z"/>
	<path class="st0" d="M12.1,27.2c0.4,0,0.7-0.3,0.7-0.7v-4c0-0.4-0.3-0.7-0.7-0.7s-0.7,0.3-0.7,0.7v4C11.4,26.8,11.7,27.2,12.1,27.2
		z"/>
	<path class="st0" d="M18.3,27.2c0.4,0,0.7-0.3,0.7-0.7v-4c0-0.4-0.3-0.7-0.7-0.7c-0.4,0-0.7,0.3-0.7,0.7v4
		C17.5,26.8,17.9,27.2,18.3,27.2z"/>
	<path class="st0" d="M21.5,27.2c0.4,0,0.7-0.3,0.7-0.7v-4c0-0.4-0.3-0.7-0.7-0.7c-0.4,0-0.7,0.3-0.7,0.7v4
		C20.8,26.8,21.1,27.2,21.5,27.2z"/>
	<path class="st0" d="M15.5,27.2c0.4,0,0.7-0.3,0.7-0.7v-4c0-0.4-0.3-0.7-0.7-0.7s-0.7,0.3-0.7,0.7v4C14.8,26.9,15.1,27.2,15.5,27.2
		z"/>
</g>
</svg>
