<?xml version="1.0" encoding="utf-8"?>
<!-- Generator: Adobe Illustrator 25.2.1, SVG Export Plug-In . SVG Version: 6.00 Build 0)  -->
<svg version="1.1" id="Layer_1" xmlns="http://www.w3.org/2000/svg" xmlns:xlink="http://www.w3.org/1999/xlink" x="0px" y="0px"
	 viewBox="0 0 40 40" style="enable-background:new 0 0 40 40;" xml:space="preserve">
<style type="text/css">
	.st0{fill:none;stroke:#6E7069;stroke-width:0.5;stroke-miterlimit:10;}
	.st1{fill:#6E7069;}
</style>
<circle class="st0" cx="20" cy="20" r="17.5"/>
<g id="XMLID_649_">
	<path id="XMLID_656_" class="st1" d="M20,13c2.3,0,2.6,0,3.5,0c0.8,0,1.3,0.2,1.6,0.3c0.4,0.2,0.7,0.3,1,0.6c0.3,0.3,0.5,0.6,0.6,1
		c0.1,0.3,0.3,0.8,0.3,1.6c0,0.9,0,1.2,0,3.5c0,2.3,0,2.6,0,3.5c0,0.8-0.2,1.3-0.3,1.6c-0.2,0.4-0.3,0.7-0.6,1
		c-0.3,0.3-0.6,0.5-1,0.6c-0.3,0.1-0.8,0.3-1.6,0.3c-0.9,0-1.2,0-3.5,0c-2.3,0-2.6,0-3.5,0c-0.8,0-1.3-0.2-1.6-0.3
		c-0.4-0.2-0.7-0.3-1-0.6c-0.3-0.3-0.5-0.6-0.6-1c-0.1-0.3-0.3-0.8-0.3-1.6c0-0.9,0-1.2,0-3.5c0-2.3,0-2.6,0-3.5
		c0-0.8,0.2-1.3,0.3-1.6c0.2-0.4,0.3-0.7,0.6-1c0.3-0.3,0.6-0.5,1-0.6c0.3-0.1,0.8-0.3,1.6-0.3C17.4,13,17.7,13,20,13 M20,11.5
		c-2.3,0-2.6,0-3.5,0.1c-0.9,0-1.5,0.2-2.1,0.4c-0.6,0.2-1,0.5-1.5,1c-0.5,0.5-0.8,1-1,1.5c-0.2,0.5-0.4,1.2-0.4,2.1
		c0,0.9-0.1,1.2-0.1,3.5s0,2.6,0.1,3.5c0,0.9,0.2,1.5,0.4,2.1c0.2,0.6,0.5,1,1,1.5c0.5,0.5,1,0.8,1.5,1c0.5,0.2,1.2,0.4,2.1,0.4
		c0.9,0,1.2,0.1,3.5,0.1c2.3,0,2.6,0,3.5-0.1c0.9,0,1.5-0.2,2.1-0.4c0.6-0.2,1-0.5,1.5-1c0.5-0.5,0.8-1,1-1.5
		c0.2-0.5,0.4-1.2,0.4-2.1c0-0.9,0.1-1.2,0.1-3.5s0-2.6-0.1-3.5c0-0.9-0.2-1.5-0.4-2.1c-0.2-0.6-0.5-1-1-1.5c-0.5-0.5-1-0.8-1.5-1
		c-0.5-0.2-1.2-0.4-2.1-0.4C22.6,11.5,22.3,11.5,20,11.5"/>
	<path id="XMLID_653_" class="st1" d="M20,15.6c-2.4,0-4.4,2-4.4,4.4s2,4.4,4.4,4.4c2.4,0,4.4-2,4.4-4.4S22.4,15.6,20,15.6 M20,22.8
		c-1.6,0-2.8-1.3-2.8-2.8c0-1.6,1.3-2.8,2.8-2.8c1.6,0,2.8,1.3,2.8,2.8C22.8,21.6,21.6,22.8,20,22.8"/>
	<path id="XMLID_652_" class="st1" d="M25.6,15.4c0,0.6-0.5,1-1,1c-0.6,0-1-0.5-1-1c0-0.6,0.5-1,1-1C25.1,14.4,25.6,14.9,25.6,15.4"
		/>
</g>
</svg>
