<?xml version="1.0" encoding="utf-8"?>
<!-- Generator: Adobe Illustrator 25.2.1, SVG Export Plug-In . SVG Version: 6.00 Build 0)  -->
<svg version="1.1" id="layer_1" xmlns="http://www.w3.org/2000/svg" xmlns:xlink="http://www.w3.org/1999/xlink" x="0px" y="0px"
	 viewBox="0 0 34 34" style="enable-background:new 0 0 34 34;" xml:space="preserve">
<style type="text/css">
	.st0{fill:#E30613;}
</style>
<g>
	<path class="st0" d="M27.3,29.1l-1.5-2.8V15.8c0-0.2-0.1-0.4-0.3-0.5c-0.1-0.1-0.3-0.1-0.5-0.1l0-2.6c0-0.1,0-0.2-0.1-0.3l-1.4-2.6
		c0,0,0,0,0,0c0,0,0,0,0,0c0,0,0,0,0-0.1c0,0,0,0,0-0.1c0,0,0,0-0.1-0.1c0,0,0,0-0.1,0c0,0-0.1,0-0.1,0c0,0,0,0-0.1,0
		c0,0-0.1,0-0.1,0c0,0,0,0-0.1,0c0,0,0,0,0,0c0,0,0,0,0,0h-4.9c-0.2,0-0.4,0.1-0.6,0.3L17,10.7c-0.3-0.9-1-1.6-1.8-2V6.3
		c0.2-0.2,0.3-0.4,0.3-0.7V4.3c0-0.5-0.4-1-1-1h-2.5c-0.5,0-1,0.4-1,1v1.3c0,0.3,0.1,0.5,0.3,0.7v2.4C10.8,9,10.3,9.5,10,10.1
		c-0.6,0.9-0.7,2-0.7,2.9v0.7v1.8l-0.2-0.1c-0.2-0.1-0.4-0.1-0.6,0c-0.2,0.1-0.3,0.3-0.3,0.5v10.4l-1.5,2.8c-0.1,0.2-0.1,0.4,0,0.6
		C6.8,29.9,7,30,7.2,30h19.5c0.2,0,0.4-0.1,0.5-0.3C27.4,29.5,27.4,29.3,27.3,29.1z M13.6,15.5L12.8,16l-1-0.7
		c-0.1-0.1-0.2-0.1-0.4-0.1c0,0,0,0,0,0c-0.1,0-0.2,0-0.4,0.1l-0.6,0.4v-1.4h3V15.5z M9.4,17.1l0.2,0.1c0,0,0,0,0,0l0.2,0.1
		c0.1,0,0.1,0.1,0.2,0.1c0,0,0.1,0,0.1,0c0,0,0.1,0,0.1,0c0,0,0,0,0,0c0,0,0.1,0,0.1,0c0,0,0,0,0.1,0c0.1,0,0.1,0,0.2-0.1l1-0.7
		l1,0.7c0.2,0.1,0.5,0.1,0.7,0l1-0.7l1,0.7c0.2,0.1,0.5,0.1,0.7,0l1-0.7l1,0.7c0.2,0.1,0.5,0.1,0.7,0l1-0.7l1,0.7
		c0.2,0.1,0.5,0.1,0.7,0l0.6-0.4c0,0,0,0,0,0l0.4-0.3l1,0.7c0.2,0.1,0.5,0.1,0.7,0l0.5-0.3v8.8H9.4V17.1z M23.7,16L23.7,16l-1.1-0.7
		c-0.2-0.1-0.3-0.1-0.5-0.1V13c0,0,0,0,0-0.1l0.8-1.5l0.7,1.4L23.7,16z M18.4,10.7h3.5L21.2,12h-3.4L18.4,10.7z M20.9,13.3V16
		L20,15.3c-0.2-0.1-0.5-0.1-0.7,0l-1,0.7l-0.9-0.6v-2.1H20.9z M12.6,6.6H14v0.8h-1.4V6.6z M12.3,4.5h2v0.8h-2V4.5z M11,10.8
		C11,10.8,11,10.8,11,10.8c0.3-0.5,0.7-0.9,1.3-1.2c0.2-0.1,0.4-0.3,0.4-0.6V8.7H14V9c0,0.2,0.1,0.5,0.4,0.6c1,0.5,1.7,1.5,1.7,2.7
		v3.3L15.5,16l-0.7-0.5v-1.8c0-0.3-0.3-0.6-0.6-0.6h-3.6v0C10.6,12.4,10.6,11.4,11,10.8z M8.3,28.8L9.2,27h15.6l0.9,1.7H8.3z"/>
	<path class="st0" d="M17.2,18.5c-3.1,0-6.3,1.1-6.3,3s3.3,3,6.3,3s6.3-1.1,6.3-3S20.3,18.5,17.2,18.5z M17.2,23.3
		c-3.1,0-5.1-1.1-5.1-1.8c0-0.7,2-1.8,5.1-1.8c3.1,0,5.1,1.1,5.1,1.8C22.3,22.2,20.3,23.3,17.2,23.3z"/>
</g>
</svg>
