<?xml version="1.0" encoding="utf-8"?>
<!-- Generator: Adobe Illustrator 25.2.1, SVG Export Plug-In . SVG Version: 6.00 Build 0)  -->
<svg version="1.1" id="layer_1" xmlns="http://www.w3.org/2000/svg" xmlns:xlink="http://www.w3.org/1999/xlink" x="0px" y="0px"
	 viewBox="0 0 34 34" style="enable-background:new 0 0 34 34;" xml:space="preserve">
<style type="text/css">
	.st0{fill:#E30613;}
</style>
<path class="st0" d="M20.8,27.9c3.9,0,7.1-3.2,7.1-7.1c0-1.9-0.7-3.6-2-4.9c-1.2-1.3-2.9-2.1-4.8-2.2c-1.4,0-3-1.1-4.5-2.1
	c-0.1-0.1-0.3-0.2-0.4-0.3c-1.6-1.1-3.3-0.5-4.4,0.5c-1,1-1.7,2.7-0.5,4.3c0.8,0.9,2.4,3.2,2.4,5c0,0,0,0,0,0
	C14,25,17.1,27.9,20.8,27.9z M9.4,13.2c0.2-0.8,0.7-1.6,1.3-2.3c-0.7-0.7-1.5-1-2.3-1c-0.8,0-1.6,0.4-2.2,1.1
	c0.1,0.6,0.5,1.3,1.1,1.7C7.9,13.2,8.6,13.4,9.4,13.2z M21.2,12.2c4.6,0.2,8.2,4,8.2,8.6c0,4.8-3.9,8.6-8.6,8.6
	c-4.6,0-8.4-3.6-8.6-8.2c0,0,0,0,0,0c0-1.2-1.3-3.2-2-3.9c0,0-0.1-0.1-0.1-0.1c-0.6-0.8-0.8-1.6-0.9-2.3c-0.1,0-0.2,0-0.3,0
	c-0.9,0-1.8-0.3-2.6-0.8c-1.1-0.8-1.8-2-1.8-3.2c0-0.2,0.1-0.4,0.2-0.5c1-1.2,2.3-1.8,3.6-1.8c0.4,0,0.8,0,1.3,0.2
	C9.6,8.5,9.4,8.4,9.3,8.3C8.1,7,6.4,6.1,5.4,6.1h0c-0.4,0-0.8-0.4-0.8-0.8c0-0.4,0.3-0.8,0.8-0.8c0,0,0,0,0,0c1.7,0,3.8,1.3,5.1,2.6
	C11.3,8,11.9,9,12.2,9.8c1.5-0.8,3.3-0.9,5,0.3c0.1,0.1,0.2,0.2,0.4,0.3C18.4,10.9,20.2,12.2,21.2,12.2z M26.4,20
	c0.4,0,0.8,0.4,0.8,0.8c0,3.5-2.8,6.3-6.3,6.3c-3.3,0-6.1-2.6-6.3-5.9c0-1.9-1.6-4.3-2.6-5.4c0,0-0.1-0.1-0.1-0.1
	c-0.5-0.7-0.5-1.6-0.1-2.4c0.2-0.4,0.7-0.5,1.1-0.3c0.4,0.2,0.5,0.7,0.3,1.1c-0.2,0.4-0.1,0.6,0,0.8c1,1.1,2.9,3.8,2.9,6.3
	c0.1,2.5,2.2,4.4,4.7,4.4c2.6,0,4.7-2.1,4.7-4.7C25.6,20.4,25.9,20,26.4,20z"/>
</svg>
