<?xml version="1.0" encoding="utf-8"?>
<!-- Generator: Adobe Illustrator 25.2.1, SVG Export Plug-In . SVG Version: 6.00 Build 0)  -->
<svg version="1.1" id="Layer_1" xmlns="http://www.w3.org/2000/svg" xmlns:xlink="http://www.w3.org/1999/xlink" x="0px" y="0px"
	 viewBox="0 0 40 40" style="enable-background:new 0 0 40 40;" xml:space="preserve">
<style type="text/css">
	.st0{fill:#6E7069;}
	.st1{fill:none;stroke:#6E7069;stroke-width:0.5;stroke-miterlimit:10;}
</style>
<path id="logo_6_" class="st0" d="M28.8,25.1c-0.8-1.8-2.5-3.3-3.5-4.2c-0.2-0.2-0.3-0.5-0.1-0.8c1.2-1.4,2.2-3.1,3.3-5.1
	c0.2-0.4-0.1-0.8-0.5-0.8h-3c-1.3,2.3-2.7,4.6-3.7,5.4c-0.3,0.2-0.7,0-0.7-0.3V15v-0.4c0-0.2-0.2-0.4-0.4-0.4h-3.6
	c-0.4,0-0.6,0.4-0.3,0.7c0,0,0,0,0.1,0.1c0.5,0.5,0.7,1.2,0.7,1.9v3.3c0,0.3-0.3,0.5-0.6,0.4c-1.7-0.8-2.9-3.6-3.8-6.2
	c0-0.1-0.1-0.2-0.3-0.2H9.6c-0.2,0-0.4,0.2-0.4,0.5c0.1,1.1,0.4,2.1,0.8,3.2c1.3,3.4,4.1,6.8,7.7,7.8c0.6,0.2,3.1,0.8,3.1-0.4v-2.3
	l0,0c0.6-1.5,2.6,0.9,4.5,3h3C28.7,25.9,29,25.4,28.8,25.1z"/>
<circle class="st1" cx="20" cy="20" r="17.5"/>
</svg>
