<?xml version="1.0" encoding="utf-8"?>
<!-- Generator: Adobe Illustrator 25.2.1, SVG Export Plug-In . SVG Version: 6.00 Build 0)  -->
<svg version="1.1" id="Ñëîé_1" xmlns="http://www.w3.org/2000/svg" xmlns:xlink="http://www.w3.org/1999/xlink" x="0px" y="0px"
	 viewBox="0 0 40 40" style="enable-background:new 0 0 40 40;" xml:space="preserve">
<style type="text/css">
	.st0{fill:#CFCFCF;}
</style>
<g>
	<g>
		<g>
			<g>
				<g>
					<path class="st0" d="M20,36.5c-2.2,0-4.4-0.4-6.4-1.3c-2-0.8-3.7-2-5.2-3.5c-1.5-1.5-2.7-3.3-3.5-5.2c-0.9-2-1.3-4.2-1.3-6.4
						c0-2.2,0.4-4.4,1.3-6.4c0.8-2,2-3.7,3.5-5.2c1.5-1.5,3.3-2.7,5.2-3.5c2-0.9,4.2-1.3,6.4-1.3c2.2,0,4.4,0.4,6.4,1.3
						c2,0.8,3.7,2,5.2,3.5c1.5,1.5,2.7,3.3,3.5,5.2c0.9,2,1.3,4.2,1.3,6.4c0,2.2-0.4,4.4-1.3,6.4c-0.8,2-2,3.7-3.5,5.2
						c-1.5,1.5-3.3,2.7-5.2,3.5C24.4,36.1,22.2,36.5,20,36.5z M20,4.9C11.7,4.9,4.9,11.7,4.9,20S11.7,35.1,20,35.1
						S35.1,28.3,35.1,20S28.3,4.9,20,4.9z"/>
				</g>
			</g>
		</g>
		<path class="st0" d="M23.9,17.1c2.3,0,4.1-1.8,4.1-4.1c0-2.3-1.8-4.1-4.1-4.1c-2.3,0-4.1,1.8-4.1,4.1c0,0.7,0.2,1.4,0.5,2l-3.6,3
			c-0.6-0.6-1.4-0.9-2.3-0.9c-1.9,0-3.4,1.5-3.4,3.4c0,1.9,1.5,3.4,3.4,3.4c0.7,0,1.4-0.2,2-0.6l3,2.7c-0.1,0.3-0.2,0.7-0.2,1.1
			c0,1.8,1.4,3.2,3.2,3.2c1.8,0,3.2-1.4,3.2-3.2c0-1.8-1.4-3.2-3.2-3.2c-0.8,0-1.5,0.3-2,0.7l-2.9-2.6c0.2-0.5,0.4-1,0.4-1.5
			c0-0.4-0.1-0.7-0.2-1.1l3.8-3.1C22,16.7,22.9,17.1,23.9,17.1z"/>
	</g>
</g>
</svg>
