<?xml version="1.0" encoding="utf-8"?>
<!-- Generator: Adobe Illustrator 25.2.1, SVG Export Plug-In . SVG Version: 6.00 Build 0)  -->
<svg version="1.1" id="layer_1" xmlns="http://www.w3.org/2000/svg" xmlns:xlink="http://www.w3.org/1999/xlink" x="0px" y="0px"
	 viewBox="0 0 34 34" style="enable-background:new 0 0 34 34;" xml:space="preserve">
<style type="text/css">
	.st0{fill:#E30613;}
</style>
<path class="st0" d="M25.9,11.3c2.4,3.8,3.3,8.7,2.5,14.6c-0.2,1.8-1.8,3.2-3.6,3.2c-0.2,0-0.4,0-0.7,0c-5.8,0-10.3-1.2-13.3-3.5
	c-2.1-1.6-3.2-4.1-3.2-6.6c-0.1,0-0.3,0-0.4-0.1C7,18.7,6.8,18.3,6.9,18l1.3-4.5H6.1c-0.3,0-0.6-0.2-0.7-0.6c-0.1-0.3,0-0.7,0.3-0.9
	l4.5-3C9.5,8.5,8.6,8,7.7,8C7.2,8,6.9,7.7,6.9,7.3c0-0.4,0.4-0.8,0.8-0.8C8.8,6.5,10,7,11,7.7l1.4-2.4c0.2-0.3,0.5-0.4,0.8-0.4
	c0.3,0,0.6,0.2,0.7,0.5l0.7,2l4.7-1c0.3-0.1,0.7,0.1,0.8,0.4c0.1,0.2,0.1,0.3,0.1,0.5C22.4,7.8,24.5,9.1,25.9,11.3z M26.9,25.7
	c0.7-5.5-0.1-10.1-2.3-13.6c-1.3-2.1-3.5-3.2-5.7-3.3l-1,1l3.3,1.3c0.3,0.1,0.5,0.5,0.5,0.8c0,0.4-0.3,0.6-0.7,0.7l-5.5,0.7v5.5
	c0,0.3-0.2,0.6-0.5,0.7c-0.1,0-0.2,0-0.2,0c-0.2,0-0.5-0.1-0.6-0.3l-2-2.6c-1,2-0.5,4.4,1.2,5.6c2.5,1.9,6.4,2.8,11.6,2.7
	c0,0,0,0,0,0c0.4,0,0.8,0.3,0.8,0.8c0,0.4-0.3,0.8-0.8,0.8c-0.2,0-0.4,0-0.6,0c-5.2,0-9.2-1-11.9-3.1c-2.1-1.6-2.9-4.6-1.8-7.1
	l-1.1,1.1c-0.5,2.5,0.5,5.1,2.5,6.7c2.9,2.2,7.3,3.3,13,3.2C25.9,27.5,26.8,26.7,26.9,25.7z M14.6,11.9l3.3-0.4l-1.6-0.7
	c-0.2-0.1-0.4-0.3-0.5-0.6c-0.1-0.2,0-0.5,0.2-0.7l1-1.1l-2.9,0.6c-0.4,0.1-0.8-0.1-0.9-0.5l-0.3-1l-0.7,1.2c0.6,0.8,1,1.6,1,2.3
	c0,0.4-0.4,0.8-0.8,0.8c-0.4,0-0.8-0.4-0.8-0.8c0-0.3-0.1-0.6-0.3-0.9c0,0,0,0,0,0l-2.5,1.7h0.5c0.2,0,0.5,0.1,0.6,0.3
	c0.1,0.2,0.2,0.4,0.1,0.7l-0.8,2.6l1.6-1.5c0.1-0.1,0.3-0.2,0.5-0.2c0,0,0,0,0.1,0c0.2,0,0.4,0.1,0.6,0.3l1.9,2.5v-3.9
	C13.9,12.3,14.2,12,14.6,11.9z M25.3,18.4c-0.3-0.3-0.8-0.3-1.1,0c-0.3,0.3-0.3,0.8,0,1.1l0.8,0.8c0.2,0.1,0.4,0.2,0.6,0.2
	c0.2,0,0.4-0.1,0.6-0.2c0.3-0.3,0.3-0.8,0-1.1L25.3,18.4z M23,13.7c-0.3-0.3-0.8-0.3-1.1,0c-0.3,0.3-0.3,0.8,0,1.1l0.8,0.8
	c0.2,0.1,0.4,0.2,0.6,0.2c0.2,0,0.4-0.1,0.6-0.2c0.3-0.3,0.3-0.8,0-1.1L23,13.7z M23,21.5c-0.3-0.3-0.8-0.3-1.1,0
	c-0.3,0.3-0.3,0.8,0,1.1l0.8,0.8c0.2,0.1,0.4,0.2,0.6,0.2c0.2,0,0.4-0.1,0.6-0.2c0.3-0.3,0.3-0.8,0-1.1L23,21.5z M21.5,17.6
	c-0.3-0.3-0.8-0.3-1.1,0c-0.3,0.3-0.3,0.8,0,1.1l0.8,0.8c0.2,0.1,0.4,0.2,0.6,0.2c0.2,0,0.4-0.1,0.6-0.2c0.3-0.3,0.3-0.8,0-1.1
	L21.5,17.6z M18.3,14.5c-0.3-0.3-0.8-0.3-1.1,0c-0.3,0.3-0.3,0.8,0,1.1l0.8,0.8c0.2,0.1,0.4,0.2,0.6,0.2c0.2,0,0.4-0.1,0.6-0.2
	c0.3-0.3,0.3-0.8,0-1.1L18.3,14.5z M18.3,20c-0.3-0.3-0.8-0.3-1.1,0c-0.3,0.3-0.3,0.8,0,1.1l0.8,0.8c0.2,0.1,0.4,0.2,0.6,0.2
	c0.2,0,0.4-0.1,0.6-0.2c0.3-0.3,0.3-0.8,0-1.1L18.3,20z"/>
</svg>
