<?xml version="1.0" encoding="utf-8"?>
<!-- Generator: Adobe Illustrator 25.2.1, SVG Export Plug-In . SVG Version: 6.00 Build 0)  -->
<svg version="1.1" id="Слой_1" xmlns="http://www.w3.org/2000/svg" xmlns:xlink="http://www.w3.org/1999/xlink" x="0px" y="0px"
	 viewBox="0 0 30 30" style="enable-background:new 0 0 30 30;" xml:space="preserve">
<style type="text/css">
	.st0{fill:#FFFFFF;}
</style>
<g>
	<path class="st0" d="M27,8.2H3c-0.8,0-1.5-0.7-1.5-1.5v0c0-0.8,0.7-1.5,1.5-1.5H27c0.8,0,1.5,0.7,1.5,1.5v0
		C28.5,7.5,27.8,8.2,27,8.2z"/>
	<path class="st0" d="M11.4,15.8H3c-0.8,0-1.5-0.7-1.5-1.5v0c0-0.8,0.7-1.5,1.5-1.5h8.3c0.8,0,1.5,0.7,1.5,1.5v0
		C12.9,15.1,12.2,15.8,11.4,15.8z"/>
	<path class="st0" d="M12.8,23.4H3c-0.8,0-1.5-0.7-1.5-1.5v0c0-0.8,0.7-1.5,1.5-1.5h9.7c0.8,0,1.5,0.7,1.5,1.5v0
		C14.3,22.7,13.6,23.4,12.8,23.4z"/>
	<g>
		<path class="st0" d="M26.2,20.5l1.8,1.8c0.6,0.6,0.6,1.5,0,2.1l0,0c-0.6,0.6-1.5,0.6-2.1,0l-1.8-1.8c-0.6-0.6-0.6-1.5,0-2.1l0,0
			C24.7,19.9,25.6,19.9,26.2,20.5z"/>
		<path class="st0" d="M21.1,10.8c-3.5,0-6.3,2.8-6.3,6.3c0,3.5,2.8,6.3,6.3,6.3s6.3-2.8,6.3-6.3C27.4,13.6,24.6,10.8,21.1,10.8z
			 M21.1,20.3c-1.8,0-3.3-1.5-3.3-3.3s1.5-3.3,3.3-3.3c1.8,0,3.3,1.5,3.3,3.3S22.9,20.3,21.1,20.3z"/>
	</g>
</g>
</svg>
