<?xml version="1.0" encoding="utf-8"?>
<!-- Generator: Adobe Illustrator 25.2.1, SVG Export Plug-In . SVG Version: 6.00 Build 0)  -->
<svg version="1.1" id="Ñëîé_1" xmlns="http://www.w3.org/2000/svg" xmlns:xlink="http://www.w3.org/1999/xlink" x="0px" y="0px"
	 viewBox="0 0 40 40" style="enable-background:new 0 0 40 40;" xml:space="preserve">
<style type="text/css">
	.st0{fill:#CFCFCF;}
</style>
<g>
	<g>
		<g>
			<path class="st0" d="M20,36.5c-2.2,0-4.4-0.4-6.4-1.3c-2-0.8-3.7-2-5.2-3.5c-1.5-1.5-2.7-3.3-3.5-5.2c-0.9-2-1.3-4.2-1.3-6.4
				c0-2.2,0.4-4.4,1.3-6.4c0.8-2,2-3.7,3.5-5.2c1.5-1.5,3.3-2.7,5.2-3.5c2-0.9,4.2-1.3,6.4-1.3c2.2,0,4.4,0.4,6.4,1.3
				c2,0.8,3.7,2,5.2,3.5c1.5,1.5,2.7,3.3,3.5,5.2c0.9,2,1.3,4.2,1.3,6.4c0,2.2-0.4,4.4-1.3,6.4c-0.8,2-2,3.7-3.5,5.2
				c-1.5,1.5-3.3,2.7-5.2,3.5C24.4,36.1,22.2,36.5,20,36.5z M20,4.9C11.7,4.9,4.9,11.7,4.9,20S11.7,35.1,20,35.1S35.1,28.3,35.1,20
				S28.3,4.9,20,4.9z"/>
		</g>
	</g>
	<g>
		<path class="st0" d="M30.6,17.6c0,0.6-0.2,1.1-0.5,1.5c0.3,0.4,0.5,1,0.5,1.5c-0.1,0.6-0.4,1.1-0.9,1.5c0.3,0.4,0.5,1,0.4,1.5
			c-0.1,0.6-0.4,1.1-0.8,1.4c0.3,0.4,0.5,1,0.4,1.5c-0.1,1-1,1.8-2,1.8H17.5c-0.9,0-1.7-0.7-1.7-1.7v0l0,0l0.4-8.2
			c0-0.8,0.2-1.2,1-2.1c0.3-0.3,0.5-0.5,0.8-0.6l0,0c0,0,0,0,0.1,0c0.8-0.4,1.5-1,2-1.7c0.6-0.8,0.9-1.5,1-2l0.1-1.7
			c0-0.4,0.2-0.8,0.5-1.1c0.3-0.3,0.7-0.4,1.1-0.4c0,0,0.1,0,0.1,0c1.5,0.1,2.5,1.8,2.6,3.3c0.1,0.5,0,0.9,0,1.3
			c-0.1,0.5-0.2,0.9-0.5,1.4l-0.5,1.1l0,0l0,0c0,0,0,0.1-0.1,0.1h4c1.2,0,2.2,0.6,2.2,1.4V17.6z"/>
		<path class="st0" d="M15.7,17.9L15.7,17.9L15.7,17.9l-0.5,8.7c0,1-0.7,1.8-1.6,1.8H11c-0.9,0-1.6-0.8-1.6-1.8v0l0,0l0.5-8.6
			c0-1.2,0.8-2.1,1.7-2.1h2.3C14.9,15.8,15.7,16.7,15.7,17.9z"/>
	</g>
</g>
</svg>
